<?xml version="1.0" encoding="UTF-8" standalone="no"?>
<svg
   xmlns:dc="http://purl.org/dc/elements/1.1/"
   xmlns:cc="http://creativecommons.org/ns#"
   xmlns:rdf="http://www.w3.org/1999/02/22-rdf-syntax-ns#"
   xmlns:svg="http://www.w3.org/2000/svg"
   xmlns="http://www.w3.org/2000/svg"
   xml:space="preserve"
   style="enable-background:new 0 0 1280 769;"
   viewBox="0 0 1280 769"
   y="0px"
   x="0px"
   id="Layer_1"
   version="1.1"><metadata
   id="metadata156"><rdf:RDF><cc:Work
       rdf:about=""><dc:format>image/svg+xml</dc:format><dc:type
         rdf:resource="http://purl.org/dc/dcmitype/StillImage" /><dc:title></dc:title></cc:Work></rdf:RDF></metadata><defs
   id="defs154" />
<style
   id="style103"
   type="text/css">
	.st0{fill:#FFFFFF;}
	.st1{fill:#0015BF;}
	.st2{opacity:0.9;fill:#0000FF;}
	.st3{fill:#0000FF;}
	.st4{font-family:'Cornerstone';}
	.st5{font-size:121.7858px;}
</style>



<g
   transform="matrix(2.6954512,0,0,2.5018088,-1180.6275,1306.5593)"
   id="g147">
	<path
   style="fill:#0015bf"
   id="path129"
   d="m 767.3,-469.46 c -25.93,-26.74 -61.29,-41.46 -99.56,-41.46 h -79.92 l 32.85,67.8 h 52.58 c 20.16,0 38.79,7.75 52.45,21.84 13.59,14.01 21.08,33.06 21.08,53.64 0,20.58 -7.49,39.63 -21.08,53.65 -13.66,14.08 -32.29,21.84 -52.45,21.84 h -52.58 l -32.85,67.79 h 79.92 c 38.27,0 73.63,-14.72 99.56,-41.45 25.8,-26.6 40.01,-62.76 40.01,-101.83 0,-39.06 -14.21,-75.23 -40.01,-101.82 z"
   class="st1" />
	<g
   id="g137">
		<path
   style="opacity:0.9;fill:#0000ff"
   id="path131"
   d="m 747.76,-367.64 c 0,-39.07 -14.21,-75.23 -40.01,-101.82 -25.78,-26.58 -60.87,-41.26 -98.87,-41.44 6.24,0.22 54.44,3.46 92.78,52.33 8.37,10.67 15.11,21.99 20.21,33.72 1.3,1.16 2.61,2.31 3.84,3.57 13.59,14.01 21.08,33.06 21.08,53.64 0,20.58 -7.49,39.63 -21.08,53.64 -2.06,2.12 -4.26,4.05 -6.53,5.88 -4.45,9.38 -9.95,18.64 -16.53,27.66 -35.77,49.06 -78.36,55.27 -90.85,56.02 36.87,-0.9 70.83,-15.48 95.95,-41.37 25.8,-26.6 40.01,-62.76 40.01,-101.83 z"
   class="st2" />
		<path
   style="fill:#0000ff"
   id="path133"
   d="m 608.88,-510.9 c -0.44,-0.01 -0.69,-0.02 -0.69,-0.02 0.23,0 0.46,0.02 0.69,0.02 z"
   class="st3" />
		<path
   style="fill:#0000ff"
   id="path135"
   d="m 609.65,-224.35 c 0.57,-0.01 1.28,-0.04 2.15,-0.09 -1.2,0.03 -2.4,0.09 -3.61,0.09 z"
   class="st3" />
	</g>
	<path
   style="fill:#0000ff"
   id="path139"
   d="m 716.73,-367.64 c 0,13.7 -4.98,26.39 -14.03,35.71 -9.1,9.38 -21.5,14.54 -34.92,14.54 h -72.27 l -45.08,93.03 v -286.56 l 45.08,93.03 h 72.27 c 13.42,0 25.82,5.16 34.92,14.54 9.05,9.33 14.03,22.01 14.03,35.71 z"
   class="st3" />
	<path
   style="fill:#0000ff"
   id="path141"
   d="m 767.3,-469.46 c -25.94,-26.74 -61.29,-41.46 -99.56,-41.46 h -59.55 c 38.27,0 73.63,14.72 99.56,41.46 25.8,26.59 40.01,62.76 40.01,101.82 0,39.07 -14.21,75.23 -40.01,101.83 -25.94,26.73 -61.29,41.46 -99.56,41.46 h 59.55 c 38.27,0 73.63,-14.72 99.56,-41.46 25.8,-26.59 40.01,-62.76 40.01,-101.83 0,-39.06 -14.21,-75.23 -40.01,-101.82 z"
   class="st3" />
	<path
   style="fill:#0000ff"
   id="path143"
   d="m 767.3,-469.46 c -25.94,-26.74 -61.29,-41.46 -99.56,-41.46 H 655.2 c 38.27,0 73.63,14.72 99.56,41.46 25.8,26.59 40.01,62.76 40.01,101.82 0,39.07 -14.21,75.23 -40.01,101.83 -25.94,26.73 -61.29,41.46 -99.56,41.46 h 12.54 c 38.27,0 73.63,-14.72 99.56,-41.46 25.8,-26.59 40.01,-62.76 40.01,-101.83 0,-39.06 -14.21,-75.23 -40.01,-101.82 z"
   class="st3" />
	<path
   style="fill:#0000ff"
   id="path145"
   d="m 762.31,-367.64 c 0,-39.07 -14.21,-75.23 -40.01,-101.82 -25.94,-26.74 -57.56,-41.46 -95.82,-41.46 h -18.29 c 38.27,0 73.63,14.72 99.56,41.46 25.8,26.59 40.01,62.76 40.01,101.82 0,39.07 -14.21,75.23 -40.01,101.83 -25.94,26.73 -61.29,41.46 -99.56,41.46 h 18.29 c 38.27,0 69.89,-14.72 95.82,-41.46 25.8,-26.6 40.01,-62.76 40.01,-101.83 z"
   class="st3" />
</g>

</svg>